<svg width="24" height="24" xmlns="http://www.w3.org/2000/svg" fill-rule="evenodd" clip-rule="evenodd"><path d="M11.5 22.6l3.404-1.816c.238.26.469.519.685.768l-4.589 2.448-11-5.869v-12.131l11-6 11.001 6.066v9.612c-.329-.319-.666-.662-1-1.019v-7.516l-2.637 1.357-.018 4.588.009-.008c1.068 1.392 2.596 3.059 3.928 4.2-1.08 1.252-1.433 2.67-.67 3.24.592.443 1.518.641 2.01 1.158.252.268.377.61.377.95 0 .863-.724 1.372-1.371 1.372-.363 0-.725-.143-.994-.426-.475-.501-.633-1.39-1.012-2.004-.523-.854-2.037-.625-3.366.411-1.549-1.873-4.505-4.809-5.757-5.579v6.198zm11.443.361c-.181.172-.472.166-.644-.019-.177-.183-.166-.473.015-.645.184-.175.471-.168.645.016.175.182.168.472-.016.648zm-12.443-10.931l-9.5-4.946v10.447l9.5 5.069v-10.57zm4.463 5.862l3.315-3.158c.467.578.933 1.06 1.553 1.715.251.263.259.507.138.623-.444.422-1.478-1.072-1.951-.621-.469.447 1.212 1.67.7 2.157-.395.377-1.135-.648-1.536-.266-.187.178-.006.541.101.845.183.525-.212.878-.789.27-.573-.606-.883-.936-1.531-1.565zm.518-9.033l-9.534-4.964-4.349 2.373 9.404 4.896 4.479-2.305zm-8.476-5.541l9.565 4.98 3.832-1.972-9.405-5.185-3.992 2.177z"/></svg>